<svg width="212" height="84" viewBox="0 0 212 84" fill="none" xmlns="http://www.w3.org/2000/svg">
<path d="M1 82.25C28.5 87.875 38.5 -45.8505 104.125 27.2501C153.5 82.2497 185.375 25.5833 211 1" stroke="#212121" stroke-width="2.5" stroke-dasharray="10 10"/>
<path d="M97.25 27.25C97.25 23.1079 100.608 19.75 104.75 19.75C108.892 19.75 112.25 23.1079 112.25 27.25C112.25 31.3921 108.892 34.75 104.75 34.75C100.608 34.75 97.25 31.3921 97.25 27.25Z" fill="#2196F3"/>
<path d="M112.25 41C112.25 37.5482 115.048 34.75 118.5 34.75C121.952 34.75 124.75 37.5482 124.75 41C124.75 44.4518 121.952 47.25 118.5 47.25C115.048 47.25 112.25 44.4518 112.25 41Z" fill="#2196F3"/>
<path d="M127.25 49.75C127.25 46.9886 129.489 44.75 132.25 44.75C135.011 44.75 137.25 46.9886 137.25 49.75C137.25 52.5114 135.011 54.75 132.25 54.75C129.489 54.75 127.25 52.5114 127.25 49.75Z" fill="#2196F3"/>
</svg>
