<svg width="139" height="154" viewBox="0 0 139 154" fill="none" xmlns="http://www.w3.org/2000/svg">
<path d="M1 2C57.25 18.875 69.75 44.5 49.125 101.375C28.5 158.25 111.625 162.833 137.25 138.25" stroke="#212121" stroke-width="2.5" stroke-dasharray="10 10"/>
<path d="M51 47.625C51 43.4829 54.3579 40.125 58.5 40.125C62.6421 40.125 66 43.4829 66 47.625C66 51.7671 62.6421 55.125 58.5 55.125C54.3579 55.125 51 51.7671 51 47.625Z" fill="#2196F3"/>
<path d="M52.25 63.875C52.25 60.4232 55.0482 57.625 58.5 57.625C61.9518 57.625 64.75 60.4232 64.75 63.875C64.75 67.3268 61.9518 70.125 58.5 70.125C55.0482 70.125 52.25 67.3268 52.25 63.875Z" fill="#2196F3"/>
<path d="M52.25 77C52.25 74.5838 54.2088 72.625 56.625 72.625C59.0412 72.625 61 74.5838 61 77C61 79.4162 59.0412 81.375 56.625 81.375C54.2088 81.375 52.25 79.4162 52.25 77Z" fill="#2196F3"/>
</svg>
