<svg width="232" height="231" viewBox="0 0 232 231" fill="none" xmlns="http://www.w3.org/2000/svg">
<path d="M1 2C28.5 7.625 94.375 -2.25 115.375 135.75C136.375 273.75 204.75 224.708 230.375 200.125" stroke="#212121" stroke-width="2.5" stroke-dasharray="10 10"/>
<path d="M100.375 98.25C100.375 94.1079 103.733 90.75 107.875 90.75C112.017 90.75 115.375 94.1079 115.375 98.25C115.375 102.392 112.017 105.75 107.875 105.75C103.733 105.75 100.375 102.392 100.375 98.25Z" fill="#2196F3"/>
<path d="M105.375 117C105.375 113.548 108.173 110.75 111.625 110.75C115.077 110.75 117.875 113.548 117.875 117C117.875 120.452 115.077 123.25 111.625 123.25C108.173 123.25 105.375 120.452 105.375 117Z" fill="#2196F3"/>
<path d="M110.375 133.25C110.375 130.489 112.614 128.25 115.375 128.25C118.136 128.25 120.375 130.489 120.375 133.25C120.375 136.011 118.136 138.25 115.375 138.25C112.614 138.25 110.375 136.011 110.375 133.25Z" fill="#2196F3"/>
</svg>
