<svg width="220" height="64" viewBox="0 0 220 64" fill="none" xmlns="http://www.w3.org/2000/svg">
<path d="M13.8458 0.143674C11.95 0.41796 9.58353 1.22776 8.04072 2.12898C4.34062 4.28409 1.54266 7.95429 0.535926 11.951C-0.0132059 14.1583 -0.013206 14.3674 0.0390923 32.7184C0.0783159 52.0359 0.0260178 50.6645 0.849715 53.1201C2.53634 58.1356 6.89016 62.1975 11.9631 63.4646C14.1726 64.0131 14.3819 64.0131 32.7516 63.9608C52.2458 63.9086 50.6899 63.987 53.3963 63.0727C57.9725 61.5445 61.8686 57.5739 63.3331 52.9241C64.1044 50.4947 64.0652 51.8008 64.0652 24.8033V0L39.3282 0.0130612C25.7175 0.0261225 14.2511 0.0783674 13.8458 0.143674ZM61.9733 25.7437C61.9733 49.0841 61.9733 49.4106 61.6987 50.7167C61.1758 53.3028 60.0383 55.5363 58.2862 57.4041C56.1944 59.6245 53.7625 60.996 50.6638 61.6751C50.0362 61.8057 46.2708 61.8449 31.9018 61.8449H13.9243L12.6168 61.4922C10.0803 60.7869 7.42621 59.2066 5.81804 57.4303C4.3014 55.7584 3.13776 53.6163 2.51018 51.3568L2.15717 50.0898V32V13.9102L2.52325 12.6041C3.12469 10.3706 4.3014 8.24164 5.81804 6.5698C7.79231 4.38857 11.0609 2.67756 14.0681 2.23347C14.4864 2.16817 25.443 2.11592 38.4129 2.10286L61.9733 2.0898V25.7437Z" fill="#B1EC52"/>
<path d="M61.9733 25.7437C61.9733 49.0841 61.9733 49.4106 61.6987 50.7167C61.1758 53.3028 60.0383 55.5363 58.2862 57.4041C56.1944 59.6245 53.7625 60.996 50.6638 61.6751C50.0362 61.8057 46.2708 61.8449 31.9018 61.8449H13.9243L12.6168 61.4922C10.0803 60.7869 7.42621 59.2066 5.81804 57.4303C4.3014 55.7584 3.13776 53.6163 2.51018 51.3568L2.15717 50.0898V32V13.9102L2.52325 12.6041C3.12469 10.3706 4.3014 8.24164 5.81804 6.5698C7.79231 4.38857 11.0609 2.67756 14.0681 2.23347C14.4864 2.16817 25.443 2.11592 38.4129 2.10286L61.9733 2.0898V25.7437Z" fill="#B1EC52"/>
<path d="M20.2259 15.8173C16.8919 16.2483 13.8979 18.325 12.4989 21.1854C11.7275 22.7528 11.466 23.7846 11.4529 25.3389C11.4529 27.4417 12.2374 29.427 13.6756 30.9552C15.6106 33.0058 17.6502 33.8286 22.5924 34.5601C23.8607 34.743 25.325 35.0042 25.848 35.1348C28.1622 35.7356 29.2866 36.8066 29.2866 38.4393C29.2866 40.2548 28.1099 41.561 25.9656 42.1095C24.8674 42.3968 23.3116 42.4882 22.2133 42.3315C19.6768 41.9788 18.1994 40.8425 17.5065 38.7397L17.2972 38.0736H14.1725H11.0476L11.0868 38.7919C11.1522 39.7585 11.6882 41.5478 12.2374 42.5797C13.571 45.1267 16.1729 47.1119 19.0754 47.7912C23.6776 48.8883 28.2145 48.196 31.2086 45.9626C31.5878 45.6883 31.9276 45.4532 31.9669 45.4532C32.0061 45.4532 32.0323 46.0148 32.0323 46.694V47.9348H34.9741H37.9158V44.1731L37.9289 40.4246L39.001 39.2752L40.0731 38.1258L41.1322 39.8629C41.7205 40.8165 43.0672 43.0238 44.1262 44.7609L46.0613 47.9348H49.513H52.9777L52.7162 47.5038C48.7416 41.0254 44.3223 33.6197 44.3747 33.5021C44.4008 33.4238 46.3097 31.2948 48.6239 28.7609C50.9381 26.2401 52.8208 24.1372 52.8208 24.0981C52.8208 24.0589 51.108 24.0458 49.0031 24.0589L45.1852 24.0981L41.6683 27.9511C39.7332 30.067 38.0989 31.8172 38.0335 31.8434C37.9681 31.8695 37.9158 28.6564 37.9158 23.9152V15.9348L35.0133 15.9609L32.0977 16.0001L32.0585 17.8809L32.0192 19.7617L31.1432 18.9128C30.1626 17.9724 29.1689 17.2931 28.0184 16.7837C25.9656 15.8695 22.8409 15.4907 20.2259 15.8173ZM24.5536 21.4858C25.665 21.747 26.5017 22.2042 27.1424 22.8834C27.7831 23.5625 27.9922 23.9021 28.306 24.7512C28.4499 25.1038 28.6198 25.4433 28.6852 25.4956C28.7637 25.5479 29.5481 25.6001 30.4371 25.6001H32.0323V28.3429C32.0323 29.845 32.0061 31.0858 31.9669 31.0858C31.9276 31.0858 31.6531 30.929 31.3655 30.7463C30.0057 29.8972 28.2276 29.414 24.2006 28.8001C19.4284 28.0686 18.0948 27.4417 17.5849 25.6784C17.0619 23.8891 18.5001 21.9691 20.7489 21.4336C21.5465 21.2507 23.6646 21.2768 24.5536 21.4858Z" fill="#4D5759"/>
<path d="M74.6553 24.2419C74.6553 24.2942 75.7797 26.7105 77.1656 29.6362C83.6899 43.4811 83.0491 42.0313 82.8792 42.5407C82.67 43.1937 81.8332 43.9774 81.2449 44.0949C80.6173 44.2125 79.3621 44.0689 78.7607 43.8207C78.4862 43.7162 78.2639 43.6379 78.2378 43.6639C78.2116 43.6771 78.1854 44.6697 78.1724 45.8452L78.1593 48.0003L78.8522 48.2484C79.3883 48.4443 79.9112 48.5097 80.9965 48.5097C82.3693 48.5227 82.487 48.4966 83.3107 48.0917C83.9513 47.7782 84.4351 47.3995 85.1411 46.6419C86.6447 45.0354 87.0107 44.33 90.4101 36.4411C91.077 34.8999 92.5152 31.5693 93.6134 29.0615C94.6986 26.5407 95.6269 24.4117 95.6661 24.3203C95.7184 24.2028 95.1432 24.1636 93.0512 24.1636H90.384L89.1288 27.5202C88.4359 29.375 87.403 32.1831 86.8146 33.7636C86.2263 35.344 85.7033 36.6892 85.651 36.7415C85.5856 36.8068 85.2849 36.2452 84.9842 35.5007C84.6704 34.7562 83.8206 32.7448 83.0884 31.0207C82.3563 29.2966 81.4149 27.05 80.9834 26.0313L80.212 24.1636H77.4402C75.9104 24.1636 74.6553 24.2028 74.6553 24.2419Z" fill="#4D5759"/>
<path d="M118.782 29.9104C116.913 30.25 115.278 31.0991 114.389 32.1962C113.788 32.9537 113.095 34.4557 113.003 35.2394L112.925 35.9187H115.226H117.514L117.605 35.4223C117.828 34.077 118.717 33.5284 120.626 33.5153C122.496 33.5153 123.319 34.077 123.332 35.3831C123.346 36.0492 123.136 36.4411 122.613 36.7154C122.496 36.7807 121.018 37.0419 119.345 37.3031C116.899 37.6688 116.141 37.8387 115.487 38.139C114.389 38.6484 113.448 39.5496 112.938 40.5945C112.559 41.3521 112.506 41.6003 112.467 42.7888C112.324 46.4068 114.298 48.4574 117.919 48.4574C119.998 48.4574 121.358 47.9611 122.731 46.7202C123.189 46.3023 123.437 46.1456 123.476 46.2631C123.503 46.3545 123.607 46.7725 123.699 47.1774L123.856 47.9349H126.457C128.98 47.9349 129.046 47.9349 129.046 47.6606C129.046 47.517 128.876 47.2427 128.654 47.0729C128.445 46.8901 128.209 46.5505 128.144 46.3284C128.078 46.0933 128.026 43.3244 128.013 40.1635C127.987 33.9725 127.948 33.4501 127.307 32.3529C127.111 32.0263 126.771 31.6084 126.548 31.4125C125.947 30.9162 124.719 30.3284 123.79 30.1063C122.809 29.8582 119.698 29.7407 118.782 29.9104ZM123.385 40.8688C123.241 43.1545 122.731 44.0819 121.253 44.8134C120.522 45.179 120.26 45.2312 119.37 45.2444C118.521 45.2574 118.286 45.2052 117.972 44.9831C117.291 44.4868 117.017 43.9252 117.017 43.0761C117.017 41.4827 117.723 40.8688 120.155 40.3594C121.738 40.0329 122.757 39.7587 123.032 39.5888C123.398 39.3537 123.463 39.6019 123.385 40.8688Z" fill="#4D5759"/>
<path d="M136.824 29.9105C134.497 30.2371 132.615 31.3994 131.386 33.2672C130.235 35.0305 129.751 37.1856 129.869 39.9023C130.013 42.7889 130.798 44.8786 132.301 46.3676C133.321 47.3734 134.157 47.8436 135.53 48.1962C136.824 48.5358 139.074 48.5619 140.342 48.2746C142.303 47.8174 144.094 46.4721 145.061 44.7611C145.598 43.7815 146.042 42.5146 146.042 41.9138V41.535H143.688C141.911 41.535 141.31 41.5742 141.283 41.6917C141.257 41.7831 141.165 42.1227 141.074 42.4492C140.839 43.3505 139.766 44.3301 138.799 44.5521C136.824 44.9832 135.216 43.7815 134.798 41.548C134.602 40.5292 134.642 37.8256 134.863 36.7807C135.321 34.6256 136.72 33.5023 138.616 33.7636C139.335 33.868 140.133 34.1946 140.381 34.5081C140.695 34.8868 141.061 35.6574 141.153 36.1015L141.231 36.5717H143.637H146.042V36.2713C146.042 35.6705 145.624 34.286 145.232 33.5154C144.382 31.9088 142.59 30.5897 140.616 30.1195C139.596 29.8713 137.805 29.7799 136.824 29.9105Z" fill="#4D5759"/>
<path d="M95.1042 30.4849C95.065 30.5894 95.0519 32.4179 95.0781 34.56C95.1173 38.4392 95.1173 38.4654 95.4573 39.1837C96.0325 40.3984 96.7777 40.9992 98.3856 41.4955C99.0132 41.6784 99.5888 41.7306 101.263 41.7176C103.249 41.7176 103.746 41.6523 105.342 41.1951L105.642 41.1167L105.668 44.5519L105.708 48L107.97 48.0392L110.218 48.0654L110.192 39.2229L110.153 30.3674H107.931H105.708L105.668 34.0376L105.642 37.7209L104.95 38.0212C104.374 38.2694 104.048 38.3216 102.766 38.3216C101.092 38.3347 100.464 38.1388 99.9683 37.4466C99.7065 37.107 99.6937 36.8457 99.628 33.7241L99.5623 30.3674L97.3661 30.3282C95.5749 30.302 95.1696 30.3282 95.1042 30.4849Z" fill="#4D5759"/>
<path d="M146.827 32.1962V34.09L149.481 34.1162L152.122 34.1554L152.161 41.1039L152.188 48.0656H154.411H156.633V41.0778V34.09H159.314H161.994V32.1962V30.3022H154.411H146.827V32.1962Z" fill="#4D5759"/>
<path d="M163.497 30.459C163.458 30.5505 163.445 34.5341 163.458 39.3145L163.497 48.0002L165.746 48.0394L168.008 48.0656L168.034 44.317L168.073 40.5553L171.447 40.5162L174.807 40.49V44.2778V48.0656H177.095H179.382L179.357 39.2101L179.318 30.3676H177.095H174.872L174.833 33.5284L174.807 36.7023H171.407H168.008V33.5023V30.3022H165.786C164.124 30.3022 163.536 30.3414 163.497 30.459Z" fill="#4D5759"/>
<path d="M182.521 39.1839V48.0656L185.018 48.0394L187.516 48.0002L189.659 44.3431C190.836 42.3316 192.222 39.9676 192.745 39.0794C193.255 38.2043 193.726 37.486 193.791 37.486C193.843 37.486 193.895 39.8631 193.895 42.7758V48.0656H196.118H198.341V39.1839V30.3022L195.961 30.3284L193.582 30.3676L192.836 31.6084C192.431 32.2876 190.993 34.73 189.634 37.0158L187.163 41.1953L187.097 35.7749L187.031 30.3676L184.783 30.3284L182.521 30.3022V39.1839Z" fill="#4D5759"/>
<path d="M201.609 39.1186V47.9349H203.897H206.186V45.1529V42.3708L207.1 41.4696C207.598 40.9733 208.029 40.5945 208.055 40.6337C208.094 40.6599 209.245 42.3186 210.618 44.3039L213.141 47.9219L216.083 47.9611C217.704 47.9872 219.037 47.9741 219.051 47.9349C219.076 47.8957 217.39 45.5709 215.325 42.7758L211.559 37.6819L215.141 34.09C217.115 32.1178 218.737 30.459 218.737 30.3937C218.737 30.3414 217.39 30.3022 215.742 30.3022H212.749L209.493 33.646L206.25 36.9766L206.186 33.672L206.12 30.3676L203.871 30.3284L201.609 30.3022V39.1186Z" fill="#4D5759"/>
</svg>
