<svg width="412" height="6" viewBox="0 0 412 6" fill="none" xmlns="http://www.w3.org/2000/svg">
<path d="M0 3C0 1.34315 1.34315 0 3 0H97C98.6569 0 100 1.34315 100 3C100 4.65685 98.6569 6 97 6H3C1.34314 6 0 4.65685 0 3Z" fill="#212121" fill-opacity="0.32"/>
<path d="M104 3C104 1.34315 105.343 0 107 0H201C202.657 0 204 1.34315 204 3C204 4.65685 202.657 6 201 6H107C105.343 6 104 4.65685 104 3Z" fill="#212121" fill-opacity="0.32"/>
<path d="M208 3C208 1.34315 209.343 0 211 0H305C306.657 0 308 1.34315 308 3C308 4.65685 306.657 6 305 6H211C209.343 6 208 4.65685 208 3Z" fill="#212121" fill-opacity="0.08"/>
<path d="M312 3C312 1.34315 313.343 0 315 0H409C410.657 0 412 1.34315 412 3C412 4.65685 410.657 6 409 6H315C313.343 6 312 4.65685 312 3Z" fill="#212121" fill-opacity="0.08"/>
</svg>
